# xmcd
#
# Track frame offsets:
#	150
#	15160
#	31569
#	43372
#	57070
#	75862
#	103355
#	116845
#	132300
#	151255
#	164302
#	179982
#
# Disc length: 2573 seconds
#
# Revision: 0
# Processed by: cddbd v1.4PL0 Copyright (c) Steve Scherf et al.
# Submitted via: audiograbber 1.80
#
DISCID=930a0b0c
DTITLE=OS QUERENCIANOS - Nossa Mensagem
DYEAR=1900
DGENRE=
TTITLE0=Cantando o que sou
TTITLE1=Caldeirão Velho
TTITLE2=Surungo no povoado
TTITLE3=Dançando a Chamarrita
TTITLE4=Ultimo Mate
TTITLE5=Nossa Mensagem
TTITLE6=Pra ti prendinha
TTITLE7=Dançando o bugio
TTITLE8=Potro Xucro
TTITLE9=Tributo ao chimarrão
TTITLE10=Bake duro
TTITLE11=Sumiço do Bugio
EXTD=Gravadora MERCOMUSIC - Curitiba/Pr
EXTT0=Editora EDIBRÁS Edições Musicais
EXTT1=Editora EDIBRÁS Edições Musicais
EXTT2=Editora EDIBRÁS Edições Musicais
EXTT3=Editora EDIBRÁS Edições Musicais
EXTT4=Editora EDIBRÁS Edições Musicais
EXTT5=Editora EDIBRÁS Edições Musicais
EXTT6=Editora EDIBRÁS Edições Musicais
EXTT7=Editora EDIBRÁS Edições Musicais
EXTT8=Editora EDIBRÁS Edições Musicais
EXTT9=Editora EDIBRÁS Edições Musicais
EXTT10=Editora EDIBRÁS Edições Musicais
EXTT11=Editora EDIBRÁS Edições Musicais
PLAYORDER=
